solid ASCII
  facet normal -1.000000e+000 -0.000000e+000 -0.000000e+000
    outer loop
      vertex   7.170000e+000 1.600000e+000 9.658000e+001
      vertex   7.170000e+000 1.600000e+000 9.106000e+001
      vertex   7.170000e+000 0.000000e+000 9.658000e+001
    endloop
  endfacet
  facet normal -1.000000e+000 0.000000e+000 0.000000e+000
    outer loop
      vertex   7.170000e+000 0.000000e+000 9.658000e+001
      vertex   7.170000e+000 1.600000e+000 9.106000e+001
      vertex   7.170000e+000 0.000000e+000 9.106000e+001
    endloop
  endfacet
  facet normal 0.000000e+000 0.000000e+000 1.000000e+000
    outer loop
      vertex   7.170000e+000 1.600000e+000 9.106000e+001
      vertex   0.000000e+000 1.600000e+000 9.106000e+001
      vertex   7.170000e+000 0.000000e+000 9.106000e+001
    endloop
  endfacet
  facet normal 0.000000e+000 0.000000e+000 1.000000e+000
    outer loop
      vertex   7.170000e+000 0.000000e+000 9.106000e+001
      vertex   0.000000e+000 1.600000e+000 9.106000e+001
      vertex   0.000000e+000 0.000000e+000 9.106000e+001
    endloop
  endfacet
  facet normal 0.000000e+000 1.000000e+000 0.000000e+000
    outer loop
      vertex   0.000000e+000 1.600000e+000 4.673301e+001
      vertex   0.000000e+000 1.600000e+000 9.106000e+001
      vertex   6.910000e+000 1.600000e+000 4.673301e+001
    endloop
  endfacet
  facet normal 0.000000e+000 1.000000e+000 -0.000000e+000
    outer loop
      vertex   6.910000e+000 1.600000e+000 4.673301e+001
      vertex   0.000000e+000 1.600000e+000 9.106000e+001
      vertex   7.170000e+000 1.600000e+000 9.106000e+001
    endloop
  endfacet
  facet normal 0.000000e+000 1.000000e+000 0.000000e+000
    outer loop
      vertex   6.910000e+000 1.600000e+000 4.673301e+001
      vertex   7.170000e+000 1.600000e+000 9.106000e+001
      vertex   5.018000e+001 1.600000e+000 9.106000e+001
    endloop
  endfacet
  facet normal 0.000000e+000 1.000000e+000 0.000000e+000
    outer loop
      vertex   5.018000e+001 1.600000e+000 9.106000e+001
      vertex   7.170000e+000 1.600000e+000 9.106000e+001
      vertex   7.170000e+000 1.600000e+000 9.658000e+001
    endloop
  endfacet
  facet normal 0.000000e+000 1.000000e+000 -0.000000e+000
    outer loop
      vertex   5.018000e+001 1.600000e+000 9.106000e+001
      vertex   7.170000e+000 1.600000e+000 9.658000e+001
      vertex   5.018000e+001 1.600000e+000 9.658000e+001
    endloop
  endfacet
  facet normal 0.000000e+000 1.000000e+000 0.000000e+000
    outer loop
      vertex   6.910000e+000 1.600000e+000 4.673301e+001
      vertex   5.018000e+001 1.600000e+000 9.106000e+001
      vertex   5.045000e+001 1.600000e+000 4.691000e+001
    endloop
  endfacet
  facet normal 0.000000e+000 1.000000e+000 -0.000000e+000
    outer loop
      vertex   5.045000e+001 1.600000e+000 4.691000e+001
      vertex   5.018000e+001 1.600000e+000 9.106000e+001
      vertex   5.735000e+001 1.600000e+000 9.106000e+001
    endloop
  endfacet
  facet normal 0.000000e+000 1.000000e+000 0.000000e+000
    outer loop
      vertex   5.045000e+001 1.600000e+000 4.691000e+001
      vertex   5.735000e+001 1.600000e+000 9.106000e+001
      vertex   5.735000e+001 1.600000e+000 4.691000e+001
    endloop
  endfacet
  facet normal 0.000000e+000 1.000000e+000 0.000000e+000
    outer loop
      vertex   5.045000e+001 1.600000e+000 4.691000e+001
      vertex   5.045000e+001 1.600000e+000 4.000000e+001
      vertex   6.910000e+000 1.600000e+000 4.673301e+001
    endloop
  endfacet
  facet normal 0.000000e+000 1.000000e+000 0.000000e+000
    outer loop
      vertex   6.910000e+000 1.600000e+000 4.673301e+001
      vertex   5.045000e+001 1.600000e+000 4.000000e+001
      vertex   6.910000e+000 1.600000e+000 3.982301e+001
    endloop
  endfacet
  facet normal -0.000000e+000 1.000000e+000 0.000000e+000
    outer loop
      vertex   6.910000e+000 1.600000e+000 3.982301e+001
      vertex   5.045000e+001 1.600000e+000 4.000000e+001
      vertex   5.735000e+001 1.600000e+000 0.000000e+000
    endloop
  endfacet
  facet normal 0.000000e+000 1.000000e+000 0.000000e+000
    outer loop
      vertex   6.910000e+000 1.600000e+000 3.982301e+001
      vertex   5.735000e+001 1.600000e+000 0.000000e+000
      vertex   0.000000e+000 1.600000e+000 0.000000e+000
    endloop
  endfacet
  facet normal -0.000000e+000 1.000000e+000 0.000000e+000
    outer loop
      vertex   5.045000e+001 1.600000e+000 4.000000e+001
      vertex   5.735000e+001 1.600000e+000 4.000000e+001
      vertex   5.735000e+001 1.600000e+000 0.000000e+000
    endloop
  endfacet
  facet normal 0.000000e+000 1.000000e+000 0.000000e+000
    outer loop
      vertex   0.000000e+000 1.600000e+000 0.000000e+000
      vertex   0.000000e+000 1.600000e+000 3.982301e+001
      vertex   6.910000e+000 1.600000e+000 3.982301e+001
    endloop
  endfacet
  facet normal 0.000000e+000 0.000000e+000 1.000000e+000
    outer loop
      vertex   7.170000e+000 0.000000e+000 9.658000e+001
      vertex   5.018000e+001 0.000000e+000 9.658000e+001
      vertex   7.170000e+000 1.600000e+000 9.658000e+001
    endloop
  endfacet
  facet normal -0.000000e+000 0.000000e+000 1.000000e+000
    outer loop
      vertex   7.170000e+000 1.600000e+000 9.658000e+001
      vertex   5.018000e+001 0.000000e+000 9.658000e+001
      vertex   5.018000e+001 1.600000e+000 9.658000e+001
    endloop
  endfacet
  facet normal 0.000000e+000 0.000000e+000 1.000000e+000
    outer loop
      vertex   5.735000e+001 1.600000e+000 9.106000e+001
      vertex   5.018000e+001 1.600000e+000 9.106000e+001
      vertex   5.735000e+001 0.000000e+000 9.106000e+001
    endloop
  endfacet
  facet normal 0.000000e+000 0.000000e+000 1.000000e+000
    outer loop
      vertex   5.735000e+001 0.000000e+000 9.106000e+001
      vertex   5.018000e+001 1.600000e+000 9.106000e+001
      vertex   5.018000e+001 0.000000e+000 9.106000e+001
    endloop
  endfacet
  facet normal 1.000000e+000 0.000000e+000 -0.000000e+000
    outer loop
      vertex   5.018000e+001 1.600000e+000 9.106000e+001
      vertex   5.018000e+001 1.600000e+000 9.658000e+001
      vertex   5.018000e+001 0.000000e+000 9.106000e+001
    endloop
  endfacet
  facet normal 1.000000e+000 0.000000e+000 0.000000e+000
    outer loop
      vertex   5.018000e+001 0.000000e+000 9.106000e+001
      vertex   5.018000e+001 1.600000e+000 9.658000e+001
      vertex   5.018000e+001 0.000000e+000 9.658000e+001
    endloop
  endfacet
  facet normal 1.000000e+000 -0.000000e+000 0.000000e+000
    outer loop
      vertex   5.735000e+001 0.000000e+000 9.106000e+001
      vertex   5.735000e+001 0.000000e+000 4.691000e+001
      vertex   5.735000e+001 1.600000e+000 9.106000e+001
    endloop
  endfacet
  facet normal 1.000000e+000 0.000000e+000 0.000000e+000
    outer loop
      vertex   5.735000e+001 1.600000e+000 9.106000e+001
      vertex   5.735000e+001 0.000000e+000 4.691000e+001
      vertex   5.735000e+001 1.600000e+000 4.691000e+001
    endloop
  endfacet
  facet normal 0.000000e+000 0.000000e+000 -1.000000e+000
    outer loop
      vertex   0.000000e+000 1.600000e+000 4.673301e+001
      vertex   6.910000e+000 1.600000e+000 4.673301e+001
      vertex   0.000000e+000 0.000000e+000 4.673301e+001
    endloop
  endfacet
  facet normal 0.000000e+000 0.000000e+000 -1.000000e+000
    outer loop
      vertex   0.000000e+000 0.000000e+000 4.673301e+001
      vertex   6.910000e+000 1.600000e+000 4.673301e+001
      vertex   6.910000e+000 0.000000e+000 4.673301e+001
    endloop
  endfacet
  facet normal 0.000000e+000 0.000000e+000 1.000000e+000
    outer loop
      vertex   6.910000e+000 1.600000e+000 3.982301e+001
      vertex   0.000000e+000 1.600000e+000 3.982301e+001
      vertex   6.910000e+000 0.000000e+000 3.982301e+001
    endloop
  endfacet
  facet normal 0.000000e+000 0.000000e+000 1.000000e+000
    outer loop
      vertex   6.910000e+000 0.000000e+000 3.982301e+001
      vertex   0.000000e+000 1.600000e+000 3.982301e+001
      vertex   0.000000e+000 0.000000e+000 3.982301e+001
    endloop
  endfacet
  facet normal -1.000000e+000 -0.000000e+000 -0.000000e+000
    outer loop
      vertex   6.910000e+000 1.600000e+000 4.673301e+001
      vertex   6.910000e+000 1.600000e+000 3.982301e+001
      vertex   6.910000e+000 0.000000e+000 4.673301e+001
    endloop
  endfacet
  facet normal -1.000000e+000 0.000000e+000 0.000000e+000
    outer loop
      vertex   6.910000e+000 0.000000e+000 4.673301e+001
      vertex   6.910000e+000 1.600000e+000 3.982301e+001
      vertex   6.910000e+000 0.000000e+000 3.982301e+001
    endloop
  endfacet
  facet normal 0.000000e+000 -1.000000e+000 0.000000e+000
    outer loop
      vertex   0.000000e+000 0.000000e+000 9.106000e+001
      vertex   6.910000e+000 0.000000e+000 4.673301e+001
      vertex   7.170000e+000 0.000000e+000 9.106000e+001
    endloop
  endfacet
  facet normal 0.000000e+000 -1.000000e+000 -0.000000e+000
    outer loop
      vertex   7.170000e+000 0.000000e+000 9.106000e+001
      vertex   6.910000e+000 0.000000e+000 4.673301e+001
      vertex   5.018000e+001 0.000000e+000 9.106000e+001
    endloop
  endfacet
  facet normal 0.000000e+000 -1.000000e+000 0.000000e+000
    outer loop
      vertex   7.170000e+000 0.000000e+000 9.106000e+001
      vertex   5.018000e+001 0.000000e+000 9.106000e+001
      vertex   7.170000e+000 0.000000e+000 9.658000e+001
    endloop
  endfacet
  facet normal 0.000000e+000 -1.000000e+000 0.000000e+000
    outer loop
      vertex   7.170000e+000 0.000000e+000 9.658000e+001
      vertex   5.018000e+001 0.000000e+000 9.106000e+001
      vertex   5.018000e+001 0.000000e+000 9.658000e+001
    endloop
  endfacet
  facet normal 0.000000e+000 -1.000000e+000 0.000000e+000
    outer loop
      vertex   0.000000e+000 0.000000e+000 9.106000e+001
      vertex   0.000000e+000 0.000000e+000 4.673301e+001
      vertex   6.910000e+000 0.000000e+000 4.673301e+001
    endloop
  endfacet
  facet normal 0.000000e+000 -1.000000e+000 0.000000e+000
    outer loop
      vertex   6.910000e+000 0.000000e+000 3.982301e+001
      vertex   5.045000e+001 0.000000e+000 4.000000e+001
      vertex   6.910000e+000 0.000000e+000 4.673301e+001
    endloop
  endfacet
  facet normal 0.000000e+000 -1.000000e+000 0.000000e+000
    outer loop
      vertex   6.910000e+000 0.000000e+000 4.673301e+001
      vertex   5.045000e+001 0.000000e+000 4.000000e+001
      vertex   5.045000e+001 0.000000e+000 4.691000e+001
    endloop
  endfacet
  facet normal 0.000000e+000 -1.000000e+000 0.000000e+000
    outer loop
      vertex   6.910000e+000 0.000000e+000 4.673301e+001
      vertex   5.045000e+001 0.000000e+000 4.691000e+001
      vertex   5.018000e+001 0.000000e+000 9.106000e+001
    endloop
  endfacet
  facet normal 0.000000e+000 -1.000000e+000 0.000000e+000
    outer loop
      vertex   5.018000e+001 0.000000e+000 9.106000e+001
      vertex   5.045000e+001 0.000000e+000 4.691000e+001
      vertex   5.735000e+001 0.000000e+000 9.106000e+001
    endloop
  endfacet
  facet normal 0.000000e+000 -1.000000e+000 -0.000000e+000
    outer loop
      vertex   5.735000e+001 0.000000e+000 9.106000e+001
      vertex   5.045000e+001 0.000000e+000 4.691000e+001
      vertex   5.735000e+001 0.000000e+000 4.691000e+001
    endloop
  endfacet
  facet normal 0.000000e+000 -1.000000e+000 0.000000e+000
    outer loop
      vertex   0.000000e+000 0.000000e+000 3.982301e+001
      vertex   0.000000e+000 0.000000e+000 0.000000e+000
      vertex   6.910000e+000 0.000000e+000 3.982301e+001
    endloop
  endfacet
  facet normal 0.000000e+000 -1.000000e+000 -0.000000e+000
    outer loop
      vertex   6.910000e+000 0.000000e+000 3.982301e+001
      vertex   0.000000e+000 0.000000e+000 0.000000e+000
      vertex   5.735000e+001 0.000000e+000 0.000000e+000
    endloop
  endfacet
  facet normal 0.000000e+000 -1.000000e+000 0.000000e+000
    outer loop
      vertex   6.910000e+000 0.000000e+000 3.982301e+001
      vertex   5.735000e+001 0.000000e+000 0.000000e+000
      vertex   5.045000e+001 0.000000e+000 4.000000e+001
    endloop
  endfacet
  facet normal 0.000000e+000 -1.000000e+000 0.000000e+000
    outer loop
      vertex   5.045000e+001 0.000000e+000 4.000000e+001
      vertex   5.735000e+001 0.000000e+000 0.000000e+000
      vertex   5.735000e+001 0.000000e+000 4.000000e+001
    endloop
  endfacet
  facet normal -1.000000e+000 -0.000000e+000 -0.000000e+000
    outer loop
      vertex   0.000000e+000 1.600000e+000 3.982301e+001
      vertex   0.000000e+000 1.600000e+000 0.000000e+000
      vertex   0.000000e+000 0.000000e+000 3.982301e+001
    endloop
  endfacet
  facet normal -1.000000e+000 0.000000e+000 0.000000e+000
    outer loop
      vertex   0.000000e+000 0.000000e+000 3.982301e+001
      vertex   0.000000e+000 1.600000e+000 0.000000e+000
      vertex   0.000000e+000 0.000000e+000 0.000000e+000
    endloop
  endfacet
  facet normal -1.000000e+000 -0.000000e+000 -0.000000e+000
    outer loop
      vertex   0.000000e+000 1.600000e+000 9.106000e+001
      vertex   0.000000e+000 1.600000e+000 4.673301e+001
      vertex   0.000000e+000 0.000000e+000 9.106000e+001
    endloop
  endfacet
  facet normal -1.000000e+000 0.000000e+000 0.000000e+000
    outer loop
      vertex   0.000000e+000 0.000000e+000 9.106000e+001
      vertex   0.000000e+000 1.600000e+000 4.673301e+001
      vertex   0.000000e+000 0.000000e+000 4.673301e+001
    endloop
  endfacet
  facet normal 0.000000e+000 0.000000e+000 -1.000000e+000
    outer loop
      vertex   5.735000e+001 0.000000e+000 0.000000e+000
      vertex   0.000000e+000 0.000000e+000 0.000000e+000
      vertex   5.735000e+001 1.600000e+000 0.000000e+000
    endloop
  endfacet
  facet normal -0.000000e+000 0.000000e+000 -1.000000e+000
    outer loop
      vertex   5.735000e+001 1.600000e+000 0.000000e+000
      vertex   0.000000e+000 0.000000e+000 0.000000e+000
      vertex   0.000000e+000 1.600000e+000 0.000000e+000
    endloop
  endfacet
  facet normal 1.000000e+000 -0.000000e+000 0.000000e+000
    outer loop
      vertex   5.735000e+001 0.000000e+000 4.000000e+001
      vertex   5.735000e+001 0.000000e+000 0.000000e+000
      vertex   5.735000e+001 1.600000e+000 4.000000e+001
    endloop
  endfacet
  facet normal 1.000000e+000 0.000000e+000 0.000000e+000
    outer loop
      vertex   5.735000e+001 1.600000e+000 4.000000e+001
      vertex   5.735000e+001 0.000000e+000 0.000000e+000
      vertex   5.735000e+001 1.600000e+000 0.000000e+000
    endloop
  endfacet
  facet normal 0.000000e+000 0.000000e+000 1.000000e+000
    outer loop
      vertex   5.045000e+001 0.000000e+000 4.000000e+001
      vertex   5.735000e+001 0.000000e+000 4.000000e+001
      vertex   5.045000e+001 1.600000e+000 4.000000e+001
    endloop
  endfacet
  facet normal -0.000000e+000 0.000000e+000 1.000000e+000
    outer loop
      vertex   5.045000e+001 1.600000e+000 4.000000e+001
      vertex   5.735000e+001 0.000000e+000 4.000000e+001
      vertex   5.735000e+001 1.600000e+000 4.000000e+001
    endloop
  endfacet
  facet normal 1.000000e+000 -0.000000e+000 0.000000e+000
    outer loop
      vertex   5.045000e+001 0.000000e+000 4.691000e+001
      vertex   5.045000e+001 0.000000e+000 4.000000e+001
      vertex   5.045000e+001 1.600000e+000 4.691000e+001
    endloop
  endfacet
  facet normal 1.000000e+000 0.000000e+000 0.000000e+000
    outer loop
      vertex   5.045000e+001 1.600000e+000 4.691000e+001
      vertex   5.045000e+001 0.000000e+000 4.000000e+001
      vertex   5.045000e+001 1.600000e+000 4.000000e+001
    endloop
  endfacet
  facet normal 0.000000e+000 0.000000e+000 -1.000000e+000
    outer loop
      vertex   5.735000e+001 0.000000e+000 4.691000e+001
      vertex   5.045000e+001 0.000000e+000 4.691000e+001
      vertex   5.735000e+001 1.600000e+000 4.691000e+001
    endloop
  endfacet
  facet normal -0.000000e+000 0.000000e+000 -1.000000e+000
    outer loop
      vertex   5.735000e+001 1.600000e+000 4.691000e+001
      vertex   5.045000e+001 0.000000e+000 4.691000e+001
      vertex   5.045000e+001 1.600000e+000 4.691000e+001
    endloop
  endfacet
endsolid
